<?xml version="1.0" encoding="utf-8"?>
<!-- Generator: Adobe Illustrator 19.2.1, SVG Export Plug-In . SVG Version: 6.00 Build 0)  -->
<svg version="1.0" id="Capa_1" xmlns="http://www.w3.org/2000/svg" xmlns:xlink="http://www.w3.org/1999/xlink" x="0px" y="0px"
	 viewBox="0 0 46.07 46.069" style="enable-background:new 0 0 46.07 46.069;" xml:space="preserve">
<g>
	<g>
		<path style="fill:#BE9858;" d="M32.258999,26.299l-0.777-0.191l-6.889,11.177999
			c-0.358999,0.583-0.947001,0.934002-1.552999,0.934002c-0.606001,0-1.193001-0.351002-1.552999-0.933998L14.6,26.107l-0.784,0.191
			c-4.925,1.232-8.398,5.658001-8.398,10.736v6.667c0,1.313,1.099,2.367001,2.412,2.367001h30.42
			c1.313,0,2.401001-1.054001,2.401001-2.367001v-6.667C40.652,31.957001,37.185001,27.531,32.258999,26.299z M34.945,40.890999
			c0,0.564999-0.436001,1.021-1.000999,1.021h-4.167999c-0.565001,0-1.034-0.456001-1.034-1.021v-0.023998
			c0-0.564999,0.468-1,1.034-1H33.944c0.564999,0,1.000999,0.437,1.000999,1V40.890999z"/>
		<path style="fill:#BE9858;" d="M13.264,18.528c1.814,4.452999,5.417999,8.125,9.685001,8.125c0.004999,0,0.136,0,0.141001,0
			c4.267,0,7.870001-3.672001,9.684999-8.125c1.264999-0.291,2.417999-1.348999,2.609001-3.669
			c0.18-2.182-0.479-3.162-1.368999-3.595C33.66,1.397,28.573,0,23.09,0c-0.023001,0-0.047001,0-0.070999,0
			c-0.023001,0-0.047001,0-0.07,0c-5.483,0-10.571,1.397-10.925,11.264c-0.89,0.433-1.549,1.413-1.369,3.595
			C10.846,17.177999,11.999,18.238001,13.264,18.528z M23.028,24.594c-0.002001,0-0.004999,0-0.007999,0
			c-0.002001,0-0.004999,0-0.007999,0c-1.459-0.006001-2.637001-1.125-2.637001-2.471001c0-1.348,1.183001-2.469,2.646-2.469
			s2.646,1.122,2.646,2.469C25.665001,23.469,24.487,24.587999,23.028,24.594z M23.017,4.259h0.002001h0.002001
			c8.413-2.109,8.932001,5.899,8.886,9.075c-0.049999,3.403999-1.843,6.984001-4.195999,9.200001
			c0.014-0.135,0.021-0.271,0.021-0.41c0-2.487-2.110001-4.537001-4.712999-4.537001s-4.712999,2.049999-4.712999,4.537001
			c0,0.139,0.007999,0.275,0.021,0.41c-2.353-2.216-4.146-5.796-4.196-9.2C14.084,10.158,14.605,2.15,23.017,4.259z"/>
		<path style="fill:#BE9858;" d="M26.417999,27.922001l-2.058001,0.596001c-0.032,0.009001-0.062,0.017-0.096001,0.021
			c-0.332001-0.292-0.764999-0.486-1.239-0.486c-0.475,0-0.907,0.193001-1.24,0.486c-0.032-0.004999-0.063999-0.013-0.094999-0.021
			l-2.049999-0.596001c-0.614-0.177-1.197001,0.285-1.197001,0.924v2.332001c0,0.642,0.584,1.103001,1.200001,0.924
			L21.784,31.479002c0.333,0.296,0.764999,0.479,1.242001,0.493999c0.479-0.014999,0.91-0.198,1.243999-0.493999l2.146,0.622999
			c0.615,0.179001,1.208-0.282,1.208-0.924v-2.332001C27.625,28.207001,27.034,27.745001,26.417999,27.922001z"/>
	</g>
</g>
</svg>
