<?xml version="1.0" encoding="utf-8"?>
<!-- Generator: Adobe Illustrator 19.2.1, SVG Export Plug-In . SVG Version: 6.00 Build 0)  -->
<svg version="1.0" id="Capa_1" xmlns="http://www.w3.org/2000/svg" xmlns:xlink="http://www.w3.org/1999/xlink" x="0px" y="0px"
	 viewBox="0 0 45.987999 45.987999" style="enable-background:new 0 0 45.987999 45.987999;" xml:space="preserve">
<g>
	<g>
		<path style="fill:#BE9858;" d="M19.433001,15.863c1.485001,0,2.722-1.046,2.962999-2.509h1.146999
			c0.240999,1.462,1.478001,2.51,2.962999,2.51c1.657999,0,3.006001-1.347,3.006001-3.004s-1.348-3.004-3.006001-3.004
			c-1.485001,0-2.722,1.113-2.962999,2.498H22.396c-0.240999-1.385-1.478001-2.498-2.962999-2.498
			c-1.657999,0-3.006001,1.35-3.006001,3.007999S17.775,15.863,19.433001,15.863z M26.504999,10.869c1.1,0,1.996,0.895,1.996,1.996
			s-0.896,1.996-1.996,1.996c-1.101999,0-1.996-0.895-1.996-1.996S25.405001,10.869,26.504999,10.869z M19.433001,10.869
			c1.1,0,1.996,0.895,1.996,1.996s-0.896,1.996-1.996,1.996c-1.101,0-1.996-0.895-1.996-1.996S18.332001,10.869,19.433001,10.869z"
			/>
		<path style="fill:#BE9858;" d="M10.64,14.816c0.194,2.362,1.388,3.417,2.678,3.683001c1.812,4.427999,5.396999,8.08,9.640999,8.08
			c4.243,0,7.827-3.649,9.639-8.074999c1.299999-0.257999,2.505001-1.312,2.701-3.687c0.164001-1.984-0.368-2.975-1.136002-3.462
			c3.039001-4.147-1.374001-6.472-1.605-6.589C30.586,0.476,26.684999,0,22.959,0c-3.923,0-7.643,0.719-9.56,4.765
			c-0.002-0.001-0.005-0.003-0.008-0.005c0,0-4.736,2.337-1.616,6.595C11.007,11.841,10.476,12.832,10.64,14.816z M14.922,6.285
			c1.432-3.856,4.514001-4.266,8.036-4.266c3.646,0,6.672001,0.4,8.062,4.254c-1.815001,2.98-0.16,7.798,0.42,9.271999
			c-1.125,4.614-4.488001,9.011999-8.482,9.011999c-3.985001,0-7.342-4.379-8.475-8.981C15.051,14.143,16.742001,9.287,14.922,6.285
			z"/>
		<path style="fill:#BE9858;" d="M25.018999,16.431999h-4.1c-1.1,0-1.992001,0.877001-1.992001,1.978001
			c0,0.573,0.465,1.024,1.039,1.024h6.004999c0.573,0,1.039-0.451,1.039-1.024C27.01,17.309,26.118,16.431999,25.018999,16.431999z"
			/>
		<path style="fill:#BE9858;" d="M32.487,26.236l-1.164-0.292999l-8.352999,18.346001l-8.333-18.346001l-1.148,0.292999
			c-4.917,1.23-8.352,5.649-8.352,10.721001v6.655998c0,1.312,1.031,2.375,2.342,2.375h31.007
			c1.311001,0,2.362999-1.063,2.362999-2.375v-6.655998C40.851002,31.886,37.404999,27.466999,32.487,26.236z M29.566999,38.984001
			C29.673,37.674,30.798,36.548,32.186001,36.548c1.387001,0,2.512001,1.125999,2.618,2.436001H29.566999z"/>
		<path style="fill:#BE9858;" d="M26.353001,28.201L24.295,28.799c-0.032,0.007999-0.063,0.016001-0.094999,0.021
			c-0.333-0.292999-0.764999-0.488001-1.24-0.488001s-0.907,0.195-1.24,0.488001c-0.032-0.006001-0.063999-0.014-0.094999-0.021
			l-2.049999-0.598c-0.614-0.176001-1.197001,0.287001-1.197001,0.926001v2.332001c0,0.641001,0.584,1.101999,1.200001,0.924002
			l2.141001-0.624001c0.333,0.296001,0.764999,0.479,1.242001,0.493999c0.478001-0.014999,0.910999-0.198002,1.243999-0.493999
			l2.146,0.624001c0.615,0.178001,1.209-0.283001,1.209-0.924v-2.330999C27.559999,28.488001,26.966999,28.027,26.353001,28.201z"/>
	</g>
</g>
</svg>
