<?xml version="1.0" encoding="utf-8"?>
<!-- Generator: Adobe Illustrator 19.2.1, SVG Export Plug-In . SVG Version: 6.00 Build 0)  -->
<svg version="1.0" id="Capa_1" xmlns="http://www.w3.org/2000/svg" xmlns:xlink="http://www.w3.org/1999/xlink" x="0px" y="0px"
	 viewBox="0 0 46.096001 46.097" style="enable-background:new 0 0 46.096001 46.097;" xml:space="preserve">
<g>
	<g>
		<path style="fill:#BE9858;" d="M32.248001,25.556l-3.683001-0.924999c1.562-1.386,2.84-3.296,3.692999-5.389999
			C33.451,18.976002,34.549,17.982,34.729,15.792002c0.169998-2.063-0.459-2.982-1.304001-3.384
			c-0.009998-0.245,1.342999-7.178-3.587999-8.954c-0.562-0.852-4.360001-6.035-11.254999-1.828
			c-1.01,0.616-2.614,1.831-3.469,3.053c-1.242,1.561-2.073,3.967-2.212,7.663c-0.922,0.361-1.641,1.262-1.461,3.45
			c0.187,2.263999,1.35,3.249999,2.591,3.473001c0.834,2.09,2.086,3.983,3.636999,5.358999L13.924,25.555
			c-5.076,1.267-8.631,5.794001-8.631,11.008999V42.806c0,1.771,1.477,3.290001,3.253,3.290001h29.16
			c1.776001,0,3.097-1.518002,3.097-3.290001v-6.242001C40.803001,31.35,37.323002,26.822001,32.248001,25.556z M14.856,13.474
			c0-0.678,0.021-1.308,0.061-1.894c6.485001,0.218,10.34-2.403,12.448-4.681c2.712999,2.705,3.678999,6.364,4,8.112999
			c-0.629,4.798-4.051001,9.891001-8.202,9.891001C18.561001,24.902,14.856,18.65,14.856,13.474z M38.879002,42.807999
			c0,0.682999-0.486,1.278-1.173,1.278H34.855v-2.657001c0-0.271999-0.251999-0.493999-0.523998-0.493999
			c-0.272999,0-0.525002,0.221001-0.525002,0.493999v2.657001h-6.690001l-2.787001-11.199001
			c0.834-0.021999,1.441-0.801998,1.246-1.617001l-0.535-2.202999c-0.143-0.59-0.672001-0.986-1.280001-0.986h-1.266001
			c-0.608,0-1.138,0.4-1.280001,0.99l-0.535,2.205999c-0.197001,0.814999,0.412001,1.587002,1.246,1.609001l-2.787001,11.200001
			H12.29v-2.657001c0-0.271999-0.208-0.493999-0.48-0.493999c-0.273,0-0.481,0.221001-0.481,0.493999v2.657001H8.547
			c-0.686,0-1.242-0.596001-1.242-1.278v-6.242001c0-4.309002,2.921999-8.048,7.114-9.095001l5.442-1.360001
			c1.024,0.493,2.132999,0.77,3.296,0.77c1.132,0,2.217001-0.275,3.226-0.764999l5.41,1.355
			c4.191002,1.047001,7.085999,4.785999,7.085999,9.095001C38.878998,36.565998,38.878998,42.807999,38.879002,42.807999z"/>
		<path style="fill:#BE9858;" d="M15.327,36.383999c-0.517-0.562-1.403-0.562-1.919,0L12.068,37.833
			c-0.325,0.354-0.075,0.917999,0.406,0.917999h3.788001c0.48,0,0.731001-0.563999,0.406-0.917999L15.327,36.383999z"/>
		<path style="fill:#BE9858;" d="M22.593,16.009001h0.988001c0.166,1.486,1.422001,2.621,2.941999,2.621
			c1.632999,0,2.959-1.320999,2.959-2.953c0-1.888-1.711-1.881-2.959-1.881c-1.084,0-2.514-0.061-2.875,1.25H22.524
			c-0.361-1.312-1.791-1.25-2.874001-1.25c-1.25,0-2.961-0.01-2.961,1.877c0,1.633,1.329,2.962001,2.961,2.962001
			C21.172001,18.635,22.427,17.496,22.593,16.009001z M26.524,14.765c1.641001,0,1.973,0.151,1.973,0.899
			c0,1.087001-0.885,1.971999-1.973,1.971999c-1.086,0-1.972-0.885-1.972-1.972C24.551001,14.916,24.882,14.765,26.524,14.765z
			 M17.68,15.664c0-0.748,0.330999-0.899,1.972-0.899c1.639999,0,1.972,0.151,1.972,0.899c0,1.087-0.885,1.972-1.972,1.972
			S17.68,16.75,17.68,15.664z"/>
	</g>
</g>
</svg>
