<?xml version="1.0" encoding="utf-8"?>
<!-- Generator: Adobe Illustrator 19.2.1, SVG Export Plug-In . SVG Version: 6.00 Build 0)  -->
<svg version="1.0" id="Capa_1" xmlns="http://www.w3.org/2000/svg" xmlns:xlink="http://www.w3.org/1999/xlink" x="0px" y="0px"
	 viewBox="0 0 45.985001 45.985001" style="enable-background:new 0 0 45.985001 45.985001;" xml:space="preserve">
<g>
	<g>
		<path style="fill:#BE9858;" d="M33.375999,12.586c-0.137001-3.598-0.917999-5.976-2.091999-7.6h0.002001
			c-0.820999-1.288-2.597-2.66-3.688-3.327c-7.178999-4.38-11.069,1.221-11.517,1.918c-0.66,0.236-4.769,2.044-3.58,8.438
			c-0.013,0.212-0.023,0.429-0.032,0.65c-0.873,0.404-1.527,1.341-1.353,3.461999c0.186,2.249001,1.316,3.262001,2.543,3.524
			c1.737,4.256001,5.184,7.77,9.264,7.77c4.067999,0,7.509001-3.496,9.251001-7.738001c1.291-0.204,2.519001-1.204,2.710999-3.555
			C35.070999,13.881,34.325001,12.949,33.375999,12.586z M22.924999,25.441999c-4.23,0-7.719-5.164-8.382-10.05
			c0.316-1.76,1.292-5.547,4.093-8.339c2.153,2.327,6.092001,5.005,12.723,4.777C31.399,12.427999,31.42,13.071,31.42,13.761
			C31.419001,19.052,27.629999,25.441999,22.924999,25.441999z"/>
		<path style="fill:#BE9858;" d="M22.636999,15.717c0-0.134-0.009001-0.258-0.025-0.37h0.781
			c-0.016001,0.112-0.024,0.236-0.024,0.37c0,2.106999,2.091,2.103999,3.097,2.103999c1.004999,0,3.097-0.003,3.097-2.11
			S27.471001,13.6,26.466,13.6c-0.709999,0-1.959,0.011-2.634001,0.739h-1.659c-0.674-0.728-1.924-0.739-2.632999-0.739
			c-1.006001,0-3.097,0.002-3.097,2.109s2.091,2.106999,3.097,2.106999C20.544001,17.818001,22.636999,17.825001,22.636999,15.717z
			 M26.465,14.593c1.792,0,2.105999,0.361,2.105999,1.118s-0.315001,1.118-2.105999,1.118
			c-1.792,0-2.105999-0.360001-2.105999-1.118C24.358,14.953,24.673,14.593,26.465,14.593z M17.431999,15.712
			c0-0.757,0.315001-1.118,2.107-1.118s2.107,0.361,2.107,1.118s-0.316,1.118-2.107,1.118
			C17.747999,16.829,17.431999,16.469,17.431999,15.712z"/>
		<path style="fill:#BE9858;" d="M32.089001,27.072001L30.890001,26.775l-7.941,18.062998L15.011,26.780001l-1.154,0.292999
			c-4.714,1.181-8.004,5.414999-8.004,10.275v6.380001c0,1.255001,0.984,2.257,2.241,2.257h29.716997
			c1.257,0,2.321999-1.001999,2.321999-2.257999V37.347C40.132,32.487,36.803001,28.253,32.089001,27.072001z M28.632999,39.544998
			l2.235001-2.417c0.527-0.573002,1.432999-0.578999,1.959-0.007l2.236,2.424H28.632999z"/>
		<path style="fill:#BE9858;" d="M23.028,41.534l2.652-6.734001l-1.229-1.23c0.776001-0.098999,1.32-0.856998,1.131001-1.645
			l-0.545-2.269001c-0.146-0.604-0.684999-1.035-1.305-1.035h-1.458c-0.621,0-1.16,0.431999-1.306,1.035L20.424,31.921999
			C20.235001,32.709,20.778,33.468998,21.555,33.568001l-1.23,1.230999L23.028,41.534z"/>
	</g>
</g>
</svg>
