<?xml version="1.0" encoding="utf-8"?>
<!-- Generator: Adobe Illustrator 19.2.1, SVG Export Plug-In . SVG Version: 6.00 Build 0)  -->
<svg version="1.0" id="Capa_1" xmlns="http://www.w3.org/2000/svg" xmlns:xlink="http://www.w3.org/1999/xlink" x="0px" y="0px"
	 viewBox="0 0 96.124001 96.123001" style="enable-background:new 0 0 96.124001 96.123001;" xml:space="preserve">
<g>
	<path style="fill:#BE9858;" d="M72.088997,0.02L59.624001,0C45.619999,0,36.57,9.285,36.57,23.656v10.907H24.037001
		c-1.083,0-1.960001,0.877998-1.960001,1.960999V52.327c0,1.083,0.878,1.959999,1.959999,1.959999H36.57v39.875996
		c0,1.083,0.876999,1.959999,1.959999,1.959999h16.351997c1.083,0,1.959999-0.877998,1.959999-1.959999V54.286999h14.653999
		c1.083,0,1.959999-0.876999,1.959999-1.959999l0.005997-15.803001c0-0.52-0.207001-1.018002-0.573997-1.386002
		s-0.866997-0.575001-1.387001-0.575001H56.841999v-9.246c0-4.444,1.059002-6.699999,6.848-6.699999l8.396999-0.003
		c1.082001,0,1.959-0.878,1.959-1.960001V1.98C74.045998,0.899,73.169998,0.022,72.088997,0.02z"/>
</g>
</svg>
