<?xml version="1.0" encoding="utf-8"?>
<!-- Generator: Adobe Illustrator 19.2.1, SVG Export Plug-In . SVG Version: 6.00 Build 0)  -->
<svg version="1.0" id="Слой_1" xmlns="http://www.w3.org/2000/svg" xmlns:xlink="http://www.w3.org/1999/xlink" x="0px" y="0px"
	 viewBox="0 0 29 23" style="enable-background:new 0 0 29 23;" xml:space="preserve">
<path style="fill:none;enable-background:new    ;" d="z"/>
<g>
	<path style="fill:#BE9858;" d="M25,2c1.1028,0,2,0.8972,2,2v15c0,1.1028-0.8972,2-2,2H4c-1.1028,0-2-0.8972-2-2V4
		c0-1.1028,0.8972-2,2-2H25 M25,0H4C1.8,0,0,1.799999,0,4v15c0,2.200001,1.8,4,4,4h21c2.200001,0,4-1.799999,4-4V4
		C29,1.799999,27.200001,0,25,0L25,0z"/>
	<polyline style="fill:none;stroke:#BE9858;stroke-width:1.5;stroke-miterlimit:10;" points="2,2 14.5,14.25 27,2 	"/>
	<line style="fill:none;stroke:#BE9858;stroke-width:1.5;stroke-miterlimit:10;" x1="2" y1="21" x2="11.693877" y2="11.5"/>
	<line style="fill:none;stroke:#BE9858;stroke-width:1.5;stroke-miterlimit:10;" x1="27" y1="21" x2="17.306122" y2="11.5"/>
</g>
</svg>
