<?xml version="1.0" encoding="utf-8"?>
<!-- Generator: Adobe Illustrator 19.2.1, SVG Export Plug-In . SVG Version: 6.00 Build 0)  -->
<svg version="1.0" id="Слой_1" xmlns="http://www.w3.org/2000/svg" xmlns:xlink="http://www.w3.org/1999/xlink" x="0px" y="0px"
	 viewBox="0 0 22 34" style="enable-background:new 0 0 22 34;" xml:space="preserve">
<path style="fill:none;enable-background:new    ;" d="z"/>
<g>
	<path style="fill:#BE9858;" d="M18,2c1.1028,0,2,0.8972,2,2v26c0,1.1028-0.8972,2-2,2H4c-1.1028,0-2-0.8972-2-2V4
		c0-1.1028,0.8972-2,2-2H18 M18,0H4C1.8,0,0,1.799999,0,4v26c0,2.200001,1.8,4,4,4h14c2.200001,0,4-1.799999,4-4V4
		C22,1.799999,20.200001,0,18,0L18,0z"/>
	<line style="fill:none;stroke:#BE9858;stroke-width:2;stroke-miterlimit:10;" x1="1.25" y1="24" x2="20.916666" y2="24"/>
	
		<line style="fill:none;stroke:#BE9858;stroke-width:2;stroke-miterlimit:10;" x1="7.25" y1="28.541666" x2="14.833333" y2="28.541666"/>
</g>
</svg>
