<?xml version="1.0" encoding="utf-8"?>
<!-- Generator: Adobe Illustrator 16.0.1, SVG Export Plug-In . SVG Version: 6.00 Build 0)  -->
<!DOCTYPE svg PUBLIC "-//W3C//DTD SVG 1.1//EN" "http://www.w3.org/Graphics/SVG/1.1/DTD/svg11.dtd">
<svg version="1.1" id="Слой_1" xmlns="http://www.w3.org/2000/svg" xmlns:xlink="http://www.w3.org/1999/xlink" x="0px" y="0px"
	 width="40px" height="52.083px" viewBox="0 0 40 52.083" enable-background="new 0 0 40 52.083" xml:space="preserve">
<g>
	<g>
		<path fill="#BE9858" d="M20.038,0C8.989,0,0,8.989,0,20.038c0,10.443,16.632,28.421,18.527,30.438l1.511,1.606l1.511-1.606
			c1.896-2.015,18.527-19.995,18.527-30.438C40.076,8.989,31.087,0,20.038,0z M20.038,28.328c-4.572,0-8.291-3.719-8.291-8.29
			c0-4.574,3.719-8.291,8.291-8.291c4.571,0,8.29,3.719,8.29,8.291C28.328,24.609,24.609,28.328,20.038,28.328z"/>
	</g>
</g>
</svg>
