<?xml version="1.0" encoding="utf-8"?>
<!-- Generator: Adobe Illustrator 19.2.1, SVG Export Plug-In . SVG Version: 6.00 Build 0)  -->
<svg version="1.0" id="Capa_1" xmlns="http://www.w3.org/2000/svg" xmlns:xlink="http://www.w3.org/1999/xlink" x="0px" y="0px"
	 viewBox="0 0 96.496002 96.496002" style="enable-background:new 0 0 96.496002 96.496002;" xml:space="preserve">
<g>
	<path style="fill:#BE9858;" d="M92.499001,65.178001c-2.873001-3.445999-6.253998-6.387001-9.453003-9.510002
		c-2.886002-2.814999-3.068001-4.447998-0.748001-7.696999c2.531998-3.546001,5.254997-6.956001,7.809998-10.486
		c2.385002-3.299,4.822998-6.589001,6.078003-10.539c0.795998-2.513,0.092003-3.622999-2.485001-4.063
		c-0.444-0.077-0.903-0.080999-1.355003-0.080999l-15.289001-0.018c-1.883003-0.028-2.924004,0.792999-3.589996,2.462
		c-0.899002,2.256001-1.825996,4.51-2.897003,6.687c-2.43,4.936001-5.143997,9.707001-8.949001,13.746998
		c-0.839001,0.890999-1.766998,2.016998-3.168999,1.553001c-1.754002-0.639999-2.271-3.529999-2.242001-4.507l-0.014999-17.646999
		c-0.34-2.521-0.898998-3.645-3.402-4.135l-15.882,0.003c-2.119999,0-3.182999,0.819-4.314999,2.145
		c-0.653,0.766001-0.85,1.263,0.492001,1.517c2.636002,0.5,4.120998,2.205999,4.514999,4.849001
		c0.632,4.223,0.588001,8.463001,0.223999,12.702999c-0.106998,1.237999-0.32,2.473-0.811001,3.629002
		c-0.768002,1.817001-2.007999,2.187-3.637001,1.069c-1.475-1.012001-2.511-2.439999-3.525-3.874001
		c-3.809-5.382-6.848-11.186001-9.326-17.285c-0.716-1.761999-1.951-2.83-3.818001-2.858999
		c-4.587-0.073-9.175-0.084999-13.762,0.004c-2.76,0.052-3.583,1.392-2.459,3.894001
		c4.996,11.112999,10.557001,21.917,17.816,31.759003c3.726999,5.050999,8.006001,9.510002,13.534,12.669998
		c6.264999,3.582001,13.008999,4.659996,20.112,4.328003c3.326-0.155998,4.325001-1.021004,4.479-4.335999
		c0.104-2.267998,0.361-4.523003,1.48-6.560997c1.098-2,2.761002-2.381001,4.678001-1.137001
		c0.959,0.623001,1.766998,1.416,2.529999,2.251999c1.872002,2.047997,3.677002,4.157997,5.620003,6.137001
		c2.436996,2.480003,5.323997,3.945,8.954002,3.645996L93.744003,75.5c2.264-0.148003,3.438004-2.924004,2.138-5.451004
		C94.969002,68.278999,93.771004,66.703003,92.499001,65.178001z"/>
</g>
</svg>
